<?xml version="1.0" encoding="utf-8"?>
<!-- Generator: Adobe Illustrator 24.1.2, SVG Export Plug-In . SVG Version: 6.00 Build 0)  -->
<svg version="1.1" id="Layer_1" xmlns="http://www.w3.org/2000/svg" xmlns:xlink="http://www.w3.org/1999/xlink" x="0px" y="0px"
	 viewBox="0 0 5590.2 732.3" style="enable-background:new 0 0 5590.2 732.3;" xml:space="preserve">
<style type="text/css">
	.st0{fill:#04FDFF;}
	.st1{fill:#FFFFFF;}
</style>
<g>
	<path class="st0" d="M1584.4,76.7c25.4,0,50.3,0,75.9,0c36.4,83,72.9,166.1,110.3,251.4c37.2-85,73.4-168,109.8-251.4
		c25.1,0,49.9,0,75.4,0c0,122.9,0,245.2,0,368.1c-28,0-55.5,0-84.4,0c0-54.1,0-107.8,0-161.6c-0.9-0.2-1.9-0.4-2.8-0.6
		c-11.8,26.7-22.5,53.9-33.8,80.9s-22.4,54-33.7,81.3c-20.7,0-40.9,0-62.3,0c-22.7-53.6-45.6-107.5-68.4-161.5
		c-0.7,0.2-1.4,0.4-2.2,0.5c0,53.4,0,106.7,0,160.8c-28.3,0-55.8,0-83.8,0C1584.4,321.9,1584.4,199.6,1584.4,76.7z"/>
	<path class="st0" d="M4.2,76.7c3.7-0.2,7-0.5,10.2-0.5c47,0,94,0,141,0c29.9,0,59.1,3.7,87.2,14.4c57.7,21.9,92.4,63.5,104.8,123.6
		c7,34,6.5,68.3-2.1,102c-16.1,63.5-57.1,102.8-119.7,120.4c-21.9,6.2-44.4,8.6-67.2,8.7c-48.7,0.1-97.3,0-146,0
		c-2.6,0-5.2-0.3-8.3-0.5C4.2,321.9,4.2,199.6,4.2,76.7z M101.7,153.9c0,71.7,0,142.1,0,213.7c11.5,0,22.4,0.4,33.3-0.1
		c15.3-0.6,30.8-0.4,45.8-3.1c37.9-6.7,61.9-29.2,70.6-67c4.9-21.3,5.4-43,1.8-64.5c-7.5-44.5-31.7-68.7-76.4-76.5
		C152.3,152,127.6,154.4,101.7,153.9z"/>
	<path class="st0" d="M2744.5,445c-35,0-68.3,0-102.5,0c-1.3-3.1-2.9-6.3-4.1-9.6c-14-36-28.3-71.8-41.8-108
		c-6-16.1-17-24.3-33.6-25c-13.6-0.6-27.3-0.1-42.3-0.1c-0.6,11.9-0.2,23.8-0.3,35.6c-0.1,11.7,0,23.3,0,35c0,12,0,24,0,36
		c0,11.6,0,23.2,0,34.6c-7.7,2.4-82.8,2.9-95.4,0.8c0-122.2,0-244.6,0-368c4.1,0,7.7,0,11.3,0c53,0,106,0,159,0
		c21.7,0,43.2,1.7,64.1,8.5c43.9,14.2,69.5,47.4,71,93.4c0.4,12.2-0.3,24.8-2.9,36.7c-7.3,32.7-27.3,55.6-57.6,69.8
		c-2.1,1-4.3,1.8-6.5,2.7c-1.8,0.8-3.7,1.6-6,2.6c1.3,0.9,2.2,1.9,3.3,2.3c19.3,6.7,31.5,20.6,39.4,38.7c4,9.1,7.4,18.5,11.1,27.8
		c10.1,25.4,20.1,50.7,30.2,76.1C2742,437.6,2743,440.7,2744.5,445z M2519.2,228c1.5,0.4,2.4,0.9,3.4,0.9c23.7,0,47.3,0.3,71-0.5
		c8.5-0.3,17.1-2.7,25.2-5.6c11.6-4.2,18.4-13.1,19.7-25.4c0.6-5.9,0.5-12-0.3-17.8c-1.6-11-7.8-19.3-18.2-23.2
		c-7.1-2.7-14.7-5-22.2-5.3c-24.6-1-49.3-1-73.9-1.2c-1.5,0-3,0.8-4.5,1.3C2519.2,177,2519.2,202.5,2519.2,228z"/>
	<path class="st0" d="M2986.8,251.4c56.1,64.3,111.6,127.9,168.2,192.9c-4.1,0.5-6.6,1-9,1c-32.7,0.1-65.3-0.1-98,0.2
		c-5.9,0-9.8-2-13.6-6.4c-44.4-50.6-89-101-133.6-151.4c-2.2-2.5-4.5-4.8-7.7-8.3c-1.8,12.1-0.7,22.9-0.9,33.6c-0.2,11,0,22,0,33
		c0,10.7,0,21.3,0,32c0,11,0,22,0,33c0,10.9,0,21.9,0,32.6c-7.8,2.1-83.1,2.7-96.1,1c-2-7.1-2.4-356.2-0.3-367.7
		c31.7,0,63.5,0,96.4,0c0,51.8,0,103.2,0,156.8c3.7-3.5,5.9-5.3,7.8-7.3c43-47.4,86-94.7,128.8-142.3c5.1-5.7,10.2-8.2,18-8.1
		c30,0.4,60,0.2,90,0.2c3.5,0,7.1,0,10.6,0c0.3,0.7,0.7,1.5,1,2.2C3094.5,135.9,3040.9,193.4,2986.8,251.4z"/>
	<path class="st0" d="M3256.8,150.4c0,23.9,0,46.1,0,69.5c26.2,1.2,52.4,0.4,78.6,0.5c25.9,0.2,51.8,0,78.3,0c0,25.2,0,49.3,0,74.4
		c-52.2,0-104.1,0-156.6,0c0,25.4,0,49.9,0,75.7c18.4,0.4,37,0.1,55.5,0.2c18.7,0,37.3,0,56,0c18.6,0,37.2,0,56.3,0
		c0,25.1,0,49.2,0,74c-87.7,0-174.8,0-262.6,0c0-122.6,0-244.9,0-367.9c87.5,0,174.6,0,262.5,0c0,24.4,0,48.6,0,73.6
		C3369,150.4,3313.5,150.4,3256.8,150.4z"/>
	<path class="st0" d="M5315.3,220.2c52.1,0,103.7,0,155.1,0c2.3,7.8,3,51.5,1.3,74.4c-10,0.6-20.2,0.2-30.4,0.3
		c-10.7,0.1-21.3,0-32,0c-10.3,0-20.7,0-31,0c-10.7,0-21.3,0-32,0c-10.2,0-20.5,0-31.3,0c0,25.5,0,50,0,75.4c55.8,0,111.3,0,166.5,0
		c2.2,8.1,2.6,60.6,0.9,73.3c-7.1,2.1-243.6,3-261.3,1c-1.9-7.1-2.5-353.6-0.5-367.8c87,0,174.1,0,262,0c0,24.4,0,48.5,0,73.6
		c-55.7,0-111.2,0-166.5,0C5314,158.4,5313.5,205.8,5315.3,220.2z"/>
	<path class="st0" d="M2109.8,369.3c-10.9,25.4-21.7,50.3-32.6,75.5c-32.3,0-64.1,0-97.1,0c1.6-3.8,2.7-6.8,4.1-9.7
		c54.6-116.6,109.2-233.2,163.6-349.9c3.1-6.6,6.5-9.5,14.1-9.3c19.3,0.6,38.6,0.2,58,0.2c3,0,5.9,0.3,9.6,0.4
		c57.5,122.4,115,244.9,172.9,368.3c-32.8,0-64,0-95.9,0c-10.9-25.2-21.8-50.4-32.7-75.6C2218.9,369.3,2165,369.3,2109.8,369.3z
		 M2192.9,182.1c-0.8,0-1.5-0.1-2.3-0.1c-16.2,37.6-32.7,75.1-48.7,113.2c14.8,1.9,91.4,1.3,99.4-0.8
		C2225.2,256.9,2209.1,219.5,2192.9,182.1z"/>
	<path class="st0" d="M775.6,445.3c-5.5,0-9.1,0-12.8,0c-25,0-50-0.2-75,0.1c-5.8,0.1-8.9-1.7-11.2-7.3
		c-7.9-19.4-16.4-38.6-24.7-57.9c-1.6-3.6-3.3-7.2-5.1-11.3c-3.3,0-6.3,0-9.2,0c-48.3,0-96.6,0.1-145-0.2c-7,0-10.6,1.9-13.3,8.6
		c-7.8,19.5-16.4,38.6-24.7,57.9c-1.3,3-2.7,6-4.3,9.4c-32,0-63.9,0-97.2,0c1.7-3.8,3-6.7,4.3-9.6C411.7,318.9,466,202.9,520.3,86.8
		c1-2.1,2.2-4.1,3-6.3c1.2-3.3,3.5-4.5,6.9-4.5c22.3,0.1,44.7,0.2,67-0.1c5.3-0.1,6.7,3.2,8.4,6.9c15,32,30,63.9,45,95.8
		c39.9,85,79.8,169.9,119.7,254.9C772,436.9,773.4,440.3,775.6,445.3z M565.2,179.4c-17.1,39.7-33.4,77.4-50.1,116.1
		c33.9,0,66.2,0,100.1,0C598.5,256.6,582.3,218.9,565.2,179.4z"/>
	<path class="st0" d="M4559.6,369.3c-10.9,25.3-21.7,50.2-32.6,75.5c-32.2,0-64.1,0-97.5,0c57.8-123.4,115.1-245.8,172.4-368.3
		c26,0,51.3,0,77.4,0c57.5,122.4,114.9,244.8,172.9,368.3c-32.7,0-63.9,0-95.9,0c-10.8-25.1-21.8-50.3-32.6-75.5
		C4668.9,369.3,4615,369.3,4559.6,369.3z M4691.8,295.7c-16.8-39-33.1-76.6-50.2-116.3c-17.2,40-33.5,77.6-50.1,116.3
		C4625.3,295.7,4657.5,295.7,4691.8,295.7z"/>
	<path class="st0" d="M1410,445.3c-6.6,0-10.9,0-15.2,0c-24.3,0-48.7-0.2-73,0.1c-5.9,0.1-8.9-1.8-11.2-7.3
		c-8.1-19.7-16.6-39.2-25-58.8c-1.4-3.3-3-6.6-4.5-9.9c-54.8,0-109,0-164,0c-10.8,25.1-21.6,50-32.5,75.3c-32.2,0-64.1,0-96.9,0
		c1.4-3.4,2.3-6.2,3.5-8.8C1046.1,318.6,1101,201.4,1155.7,84c2.8-6.1,6.1-8.3,12.8-8.1c20,0.4,40,0.1,60,0.2c2.6,0,5.2,0.3,8.4,0.6
		C1294.3,199,1351.7,321.2,1410,445.3z M1249.3,295.5c-16.8-38.9-33.1-76.6-50.1-116.2c-17.1,39.7-33.4,77.4-50.1,116.2
		C1182.8,295.5,1214.9,295.5,1249.3,295.5z"/>
	<path class="st0" d="M3913.1,301.1c0,48.5,0,95.7,0,143.5c-32.7,0-64.5,0-96.9,0c0-122.6,0-244.9,0-367.9c3.5-0.2,6.7-0.6,9.9-0.6
		c55.3,0,110.6,0,165.9,0c20.1,0,39.8,2.1,59,8.6c45.7,15.4,71.9,51.6,73.3,99.8c1.6,56-28.5,88.7-63.6,103.6
		c-11.8,5-24.7,8-37.3,10.5c-10.4,2-21.2,2.2-31.8,2.4c-22.3,0.3-44.6,0.1-66.9,0.1C3921.4,301.1,3918.2,301.1,3913.1,301.1z
		 M3913.7,227.8c1.9,0.4,2.9,0.8,3.8,0.8c22.3,0,44.6,0.5,66.9-0.3c9.5-0.4,19-2.9,28.1-5.7c8.9-2.8,15.1-9.5,18.5-18.4
		c8.6-22.9-2.8-45.1-26.4-51.4c-3.2-0.9-6.5-1.8-9.8-1.9c-25.9-0.5-51.9-0.8-77.8-1.1c-0.9,0-1.9,0.6-3.4,1.1
		C3913.7,176.3,3913.7,201.8,3913.7,227.8z"/>
	<path class="st0" d="M5168.8,111.9c-9.8,22.9-19.5,45.4-29.4,68.5c-4.9-3.1-9.1-5.7-13.3-8.3c-27.7-17-57.5-25.9-90.3-23.5
		c-36.1,2.7-61.3,20.5-73.7,54.8c-3.5,9.6-5.8,19.9-7,30c-3.1,25.9-2.7,51.8,4.6,77.2c11.5,39.3,39.6,60.9,80.4,62.4
		c31.4,1.2,59.8-7.7,86.2-23.9c4-2.4,7.8-5,12.9-8.2c9.8,22.9,19.5,45.3,29.5,68.5c-3.5,2.8-6.6,5.7-10,8.1
		c-20.8,14.7-44.2,22.9-68.9,27.8c-36.5,7.3-73.1,6.9-108.8-3.6c-68.9-20.3-109-67.4-122.9-137.1c-7.1-35.8-6.2-71.7,4.3-106.8
		c20.6-68.7,67.4-109.3,137.3-122.7c45.1-8.6,89.6-4.3,132.2,13.7C5145.2,94.6,5157.5,101.7,5168.8,111.9z"/>
	<path class="st0" d="M3457.6,154.9c0-26.9,0-52.1,0-78c105.9,0,211.3,0,316.8,0c1.9,7.1,2.6,57.3,0.9,77.9
		c-35.9,0.4-72,0-109.1,0.2c0,96.8,0,192.8,0,288.5c-8.2,2.2-83.9,2.8-98.8,0.8c0-31.6-0.1-63.4-0.1-95.2c0-32.3,0-64.6,0-96.9
		c0-31.9,0-63.8,0-97.2c-12.5-0.3-24.3-0.1-36.2-0.1c-12.3,0-24.7,0-37,0C3482.2,154.9,3470.3,154.9,3457.6,154.9z"/>
	<path class="st0" d="M832.1,154.9c-37.4,0-73,0-108.4,0c-2.2-7.6-2.6-67.2-0.5-78.2c105.3,0,210.7,0,316.8,0c0,25.9,0,51.4,0,77.8
		c-35.9,0-71.8,0-109,0c-0.8,11.3-0.3,21.8-0.4,32.3c-0.1,10.7,0,21.3,0,32c0,11,0,22,0,33c0,10.7,0,21.3,0,32s0,21.3,0,32
		s0,21.3,0,32c0,11,0,22,0,33c0,10.7,0,21.3,0,32c0,10.6,0,21.1,0,32.3c-33.2,0-65.3,0-98.5,0C832.1,348.2,832.1,252.1,832.1,154.9z
		"/>
	<path class="st0" d="M4171.3,444.7c0-123.1,0-245.1,0-367.9c32.3,0,64.1,0,97,0c0,96.4,0,192.5,0,289.7c52.5,0,104,0,155.9,0
		c0,26.7,0,52.1,0,78.2C4339.8,444.7,4256,444.7,4171.3,444.7z"/>
	<path class="st1" d="M351.9,634.7c-5.8,0-11,0-16.6,0c-9.1-25.7-18-51-26.9-76.3c-0.7-0.1-1.3-0.1-2-0.2
		c-9,25.3-18.1,50.6-27.3,76.5c-5.4,0-10.6,0-16.7,0c-12.8-36.2-25.6-72.4-38.7-109.7c4.2-0.2,7.4-0.4,10.6-0.5c3-0.1,5.9,0,9.4,0
		c9.1,26.8,18,53.2,26.9,79.5c12.1-25.8,20.1-52.7,30.2-79.1c4.6,0,8.8,0,14.2,0c9.1,26.6,18.3,53.4,27.4,80.3
		c0.6,0,1.2,0.1,1.8,0.1c9.1-26.6,18.3-53.2,27.5-80.3c6.2,0,12,0,19,0C377.6,562,364.8,598.3,351.9,634.7z"/>
	<path class="st1" d="M3219.6,634.8c-5.4,0-10.2,0-16.5,0c-0.7-10.7-0.3-21.2-0.3-31.7c-0.1-10.1,0-20.2,0-30.4
		c-0.7-0.1-1.4-0.3-2.1-0.4c-1.4,2.8-2.9,5.6-4.1,8.5c-6.6,15.3-13.1,30.6-19.6,45.9c-1.9,4.5-3.1,8.9-10,9
		c-7.4,0.1-8.8-4.4-10.9-9.3c-6.6-15.3-13.2-30.5-19.9-45.7c-1.2-2.7-2.5-5.3-4.9-10.3c-1.8,7.2-1,12.3-1.2,17.2
		c-0.1,5.3,0,10.6,0,16c0,5,0,10,0,15c0,5.2,0,10.5,0,16.3c-6.3,0-11.4,0-17.1,0c0-36.7,0-72.8,0-109.5c2.8-0.3,5.4-0.6,7.9-0.7
		c2.3-0.1,4.6,0.2,7.5,0.4c12.5,28.1,24.9,56.3,38.2,86.4c13.2-30.2,25.6-58.3,38-86.5c5.2,0,9.7,0,15,0
		C3219.6,561.5,3219.6,597.9,3219.6,634.8z"/>
	<path class="st1" d="M1863.3,524.8c5.3,0,9.9,0,14.4,0c2.1,7.8,2.3,100.2,0.2,110c-4.8,0-9.6,0-15.9,0c-0.6-10.5-0.2-21-0.3-31.5
		c-0.1-10.6,0-21.1-1.4-32.2c-1.2,2.1-2.7,4.1-3.6,6.3c-7,16.2-13.9,32.4-20.8,48.6c-4.4,10.1-4.4,10.1-17.5,8.4
		c-8.9-20.3-18.1-41.2-27.3-62c-0.7,0.1-1.4,0.2-2.1,0.3c0,20.4,0,40.7,0,61.9c-6.3,0-11.4,0-17.1,0c0-36.5,0-72.6,0-109.4
		c2.7-0.3,5.2-0.7,7.8-0.7c2.3-0.1,4.6,0.2,7.4,0.4c12.5,28.2,24.9,56.3,38.3,86.5C1838.5,581.4,1850.8,553.5,1863.3,524.8z"/>
	<path class="st1" d="M5462.9,571.3c-4.6,10.6-9.1,21.3-13.7,31.9c-4.5,10.4-9,20.7-13.5,31.2c-2.2,0.3-4.2,0.6-6.1,0.9
		c-5.5,0.8-8.3-1.6-10.4-6.8c-6.6-16-13.7-31.7-20.7-47.6c-1.3-2.9-2.7-5.8-5.9-8.3c0,20.3,0,40.6,0,61.8c-6.2,0-11.2,0-16.3,0
		c-2.1-7.1-2.5-98.7-0.4-109.6c4.5,0,9.1,0,14.8,0c12.3,27.7,24.7,55.9,38.2,86.4c13.2-30,25.5-58,37.9-86.3c4.9,0,9.8,0,15.2,0
		c0,36.6,0,72.7,0,109.6c-5.2,0-10,0-16.1,0c-1.3-10.2-0.4-20.7-0.6-31.2s0-21.1,0-31.6C5464.5,571.6,5463.7,571.5,5462.9,571.3z"/>
	<path class="st1" d="M3889.8,524.4c6,0,12.2,0,18.5,0c10.3,0,20.7-0.3,31,0.2c5.6,0.2,11.3,1,16.6,2.8c9.8,3.4,16.4,10.2,17.9,20.8
		c1.6,11.1-1.4,20.4-11.2,26.9c-1.1,0.7-2.2,1.5-3.7,2.6c1.5,1.1,2.7,2.1,4.1,2.8c11,6,14.7,15.8,13.8,27.7
		c-0.9,12.3-7.9,20.1-19.2,24.3c-2.5,0.9-5.1,1.9-7.7,1.9c-19.9,0.2-39.8,0.1-59.7,0.1C3888,627.6,3887.5,536.7,3889.8,524.4z
		 M3908,619.3c12.9,0,24.5,0.7,35.9-0.2c9.8-0.8,13.8-6.1,14-14.9c0.3-9.4-3.8-15-13.6-16.6c-11.7-1.9-23.6-1-35.8-0.5
		c-0.3,2.8-0.6,4.7-0.6,6.6C3908,602,3908,610.2,3908,619.3z M3908.3,571c8.8,0,16.7,0.1,24.6-0.1c4-0.1,8-0.3,11.8-1.3
		c6.9-1.9,10.4-7.1,10.4-14.1c0-7.4-3.8-13.1-11.2-14.5c-11.7-2.2-23.5-1.1-35.6-0.8C3908.3,550.8,3908.3,560.1,3908.3,571z"/>
	<path class="st1" d="M935.5,577.9c2.4,1.5,4.1,2.4,5.7,3.5c18.1,12.3,16.4,39.6-3.2,49.3c-3.5,1.7-7.5,2.9-11.3,3.6
		c-4.6,0.8-9.3,0.9-13.9,0.9c-15.3,0.1-30.5,0-45.6,0c-2.3-8.1-3.1-90.4-1.3-109.2c0.5-0.4,1-1.3,1.5-1.3c18.3-0.1,36.7-1,54.9,0.2
		c20,1.3,31.1,15.6,27.9,33.6C948.9,566.3,946.1,570.1,935.5,577.9z M885.4,619.1c12.6,0,24.5,0.8,36.2-0.3
		c9.2-0.8,12.7-6,12.8-14.7c0.2-9.3-3.4-14.5-12.5-16.3c-12-2.3-24.2-1.2-36.6-0.7C885.4,598.4,885.4,608.8,885.4,619.1z
		 M885.1,570.6c11.6,0,22.2,0.1,32.8-0.1c1.6,0,3.2-0.7,4.8-1.3c6.2-2.5,9.3-7.2,9.3-13.9c0-6.6-3.3-11.4-9.5-13.8
		c-6.1-2.4-29.7-2.3-37.4,0.4C885.1,551,885.1,560.2,885.1,570.6z"/>
	<path class="st1" d="M703.8,634.2c0-36.4,0-72.3,0-108.7c1.9-0.4,3.8-1.1,5.6-1.1c13.3-0.1,26.7-0.1,40,0.1
		c10.2,0.2,19.8,2.6,28.6,7.8c32.3,19.1,32,76.6-0.6,95.1c-5.7,3.2-12.3,6.1-18.7,6.4C740.8,634.8,722.8,634.2,703.8,634.2z
		 M723.7,618.6c10.1,0,19.1,0.7,28-0.1c15.6-1.4,26-10.9,28.3-26.4c1.2-8.4,1-17.3-0.2-25.7c-1.6-10.9-8.1-18.9-18.7-22.8
		c-12.2-4.5-24.7-3.2-37.3-2.6C723.7,567.2,723.7,592.4,723.7,618.6z"/>
	<path class="st1" d="M4200.1,634.9c0-36.9,0-73,0-110.4c4.5,0,8.7,0,12.9,0c9.7,0,19.3,0,29,0c37.2,0.1,59.5,23.7,55.2,64.2
		c-3,27.9-20.6,44.4-48.8,46.1C4232.5,635.6,4216.6,634.9,4200.1,634.9z M4220.1,618.1c10.8,0,21.1,1.2,31.1-0.3
		c13.8-2.1,22.2-11.2,25.1-25.1c1.9-9,1.9-17.8-0.2-26.7c-3-12.4-10.4-20.5-23-23.7c-10.8-2.7-21.6-1.8-33-1.2
		C4220.1,567.1,4220.1,592.5,4220.1,618.1z"/>
	<path class="st1" d="M2386.7,525.5c10.5-3.4,16.3,0.6,21.9,8.2c14.3,19.6,29.5,38.6,44.3,57.8c2,2.6,4.1,5,7.2,7.3
		c1.4-24.5,0.8-48.8,1.3-73.8c6.2,0,11.7,0,17.8,0c0,36.3,0,72.4,0,108.4c-11.4,3.5-13.3,3-20.2-5.9c-15.4-20-30.9-40.1-46.3-60.1
		c-1.9-2.5-4-4.9-8-6.7c0,24.4,0,48.8,0,73.8c-6.7,0-12.1,0-18,0C2386.7,597.9,2386.7,561.8,2386.7,525.5z"/>
	<path class="st1" d="M2717.8,634.4c-2.8,0.4-4.7,0.8-6.7,0.9c-4.3,0.1-8.6,0-13.7,0c-4.2-10.8-8.3-21.3-12.4-31.8
		c-4.8-12.4-7.5-14.4-20.6-14.6c-5.3-0.1-10.6,0-17.2,0c-1.6,15.3,0.2,30.1-1.1,45.6c-6.3,0-12.1,0-18.6,0c0-36.4,0-72.5,0-109.3
		c1.9-0.3,3.8-0.8,5.6-0.8c14.7-0.1,29.3-0.1,44,0c3.3,0,6.7,0.3,9.9,0.9c14.9,3,23.1,11.1,25.3,24.5c2.5,14.9-2.6,25.8-15.7,33.6
		c-1.1,0.6-2.2,1.3-4.1,2.3c8.8,4.8,11.9,12.8,14.9,21C2710.9,615.9,2714.2,624.9,2717.8,634.4z M2646.7,574.2
		c12.3-0.6,23.5-0.5,34.6-1.8c8.4-1,12.6-7,12.8-15.2c0.2-8.4-3.7-14.6-11.7-16.1c-11.7-2.1-23.5-1.6-35.6-0.5
		C2646.7,551.8,2646.7,562,2646.7,574.2z"/>
	<path class="st1" d="M500.8,524.8c19.2,0,37.6-0.9,55.8,0.2c21.2,1.4,32.3,16.2,29.3,37c-1.6,11.6-9,18.7-19.3,23.5
		c9.5,8.7,21.2,33.5,23.2,49.3c-2.6,0.2-5.2,0.5-7.8,0.5c-3.6,0.1-7.2,0-11.3,0c-4.3-11.2-8.4-21.6-12.5-32.1
		c-4.6-11.9-7.4-13.9-19.8-14.2c-5.6-0.1-11.2,0-18.2,0c0,15.6,0,30.3,0,45.7c-7.2,0-13,0-19.4,0
		C500.8,598.1,500.8,561.9,500.8,524.8z M520.3,572.5c9,1.9,28.3,1.8,35,0c7.9-2.1,12.3-7.8,12.3-15.9c0-8.2-4.4-14.3-12.5-15.6
		c-11.4-1.9-22.9-1.3-34.7-0.5C520.3,551.7,520.3,562.2,520.3,572.5z"/>
	<path class="st1" d="M3404.2,585.5c10,9.1,18.5,26.8,23.6,48.9c-6.5,0-12.9,0-19.9,0c-4.1-10.7-8.7-21.5-12.3-32.5
		c-3.1-9.4-9.4-13.1-18.8-13c-5.9,0.1-11.8,0-19,0c0,8.3,0,15.5,0,22.7c0,7.3,0,14.5,0,22.7c-6.5,0-12.3,0-18.1,0
		c-2.1-6.6-2.7-95.3-0.5-110c5.3,0,10.9,0,16.4,0c10.3,0,20.6-0.1,31,0.1c3.7,0,7.4,0.2,10.9,0.8c14.8,2.7,23.7,11.1,26.1,24
		c2.7,14.9-2.7,26.6-16,34.4C3406.6,584.2,3405.7,584.7,3404.2,585.5z M3357.8,573.4c12.4,0.5,24.4,1.6,36.1-1.2
		c7.5-1.8,11.2-7.7,11.2-15.8c-0.1-7.8-3.4-13.2-10.7-15c-12-2.9-24.2-1.5-36.5-1.2C3357.8,551.6,3357.8,561.6,3357.8,573.4z"/>
	<path class="st1" d="M5284,589c0,8.4,0,15.7,0,22.9c0,7.3,0,14.5,0,22.6c-6.6,0-12.4,0-18.1,0c-2.1-7.1-2.9-88.3-1-109
		c2-0.3,4.2-1,6.3-1c14.3-0.1,28.7-0.1,43,0c3,0,6,0.2,9,0.7c14.9,2.5,24.3,10.9,26.6,23.4c2.9,15.9-2.3,27.2-16.1,35.3
		c-0.9,0.5-1.7,1-2.8,1.6c15.4,12.6,16,32,25,49.1c-7.9,0-14.1,0-21.3,0c-3.8-9.8-7.8-19.9-11.8-30.1c-5.5-14-7.6-15.5-22.9-15.6
		C5295,589,5290.1,589,5284,589z M5284.3,574.2c12-0.5,23.3-0.4,34.3-1.8c8.7-1,13.2-7.6,13.1-16.1c-0.1-8.1-4.5-14.1-12.7-15.5
		c-11.4-1.9-22.9-1.2-34.7-0.5C5284.3,551.6,5284.3,561.8,5284.3,574.2z"/>
	<path class="st1" d="M2324.1,634.3c-19.9,2.6-19.9,2.6-26.2-13.7c-2.7-7.1-5.5-14.3-8.2-21.4c-2.1-5.5-5.9-9.1-11.7-9.4
		c-7.9-0.4-15.8-0.1-24.7-0.1c0,15.2,0,29.7,0,45c-6.9,0-12.6,0-19.1,0c0-36.2,0-72.4,0-108.6c0.4-0.3,0.9-1.1,1.4-1.1
		c18-0.1,36-1,53.9,0.2c23,1.5,35.2,20.3,28.4,41.6c-2.9,9.2-9.5,15-19,19c9.4,5.4,12.5,14.2,15.6,23
		C2317.4,617,2320.7,625.3,2324.1,634.3z M2253.6,540.5c0,11.2,0,21.9,0,33.7c11.8-0.5,22.7-0.4,33.4-1.6
		c9.3-1.1,13.6-7.3,13.3-16.7c-0.3-8.6-4.8-14.5-13.9-15.2C2275.7,539.9,2264.8,540.5,2253.6,540.5z"/>
	<path class="st1" d="M5190.5,636.6c-27.2-0.1-45.4-14.7-51.1-41.2c-2.6-12.3-2.3-24.5,1.1-36.6c7.2-25.3,30.4-39.3,58.3-35.5
		c23.3,3.2,39.1,17.6,42.9,40.8c1.5,9.4,1.8,19.3,0.4,28.7C5238,621,5219,636.7,5190.5,636.6z M5224.6,579.8
		c-1.6-7.5-2.4-14.8-4.8-21.6c-4.6-12.8-15.5-19.6-29.5-19.4c-13.6,0.1-23.9,6.8-28.6,19.3c-5.5,14.5-5.4,29.4,0.2,43.8
		c4.8,12.5,15,18.8,28.8,18.8c13.9,0,24.2-6.2,28.8-18.8C5222.2,594.9,5223,587.2,5224.6,579.8z"/>
	<path class="st1" d="M2006.9,580c-1.7,8.1-2.6,16.4-5.2,24.2c-6.5,19.5-23.2,31.5-43.7,32.2c-5.6,0.2-11.4,0.3-16.9-0.8
		c-19.8-3.9-32.5-16-38.2-35.2c-3.2-11-3.6-22.2-1.8-33.6c4.9-30.6,27.9-47.1,59.9-43.5c26,3,42,20.8,44.5,48.4c0.2,2.6,0,5.3,0,8
		C2006,579.9,2006.5,580,2006.9,580z M1987,580c-1.7-7.6-2.5-15.3-5.1-22.3c-4.6-12.5-15.2-19-28.8-19s-24.2,6.6-28.9,18.9
		c-5.7,14.8-5.7,30.1,0.3,44.8c5.2,12.7,15.4,18.5,29.2,18.4c13.4-0.1,23.2-6,28.1-18.4C1984.4,595.4,1985.3,587.7,1987,580z"/>
	<path class="st1" d="M2213.6,580.2c-1.9,8.7-2.8,17.8-6,26c-7.3,18.9-22,28.8-42,30.2c-6.6,0.5-13.4,0.1-19.8-1.3
		c-18.2-3.8-29.9-15.4-35.6-32.8c-4.4-13.6-4.6-27.5-1.1-41.4c6.9-26.9,29.8-41.4,58.7-37.6c25,3.3,41.2,20.1,44,45.6
		c0.4,3.6,0.4,7.3,0.6,11C2212.8,580,2213.2,580.1,2213.6,580.2z M2193.4,580.1c-0.2-0.1-0.5-0.2-0.7-0.2c-0.5-4.6-0.7-9.3-1.4-13.8
		c-0.5-2.9-1.5-5.8-2.7-8.5c-5.2-12.3-15.4-18.8-29-18.7c-13.5,0.1-24.2,6.7-28.8,19.1c-5.4,14.5-5.3,29.4,0,43.9
		c4.7,12.9,15.3,19.2,29.7,19c13.6-0.2,23.9-6.7,28.4-19.5C2191.2,594.5,2191.9,587.2,2193.4,580.1z"/>
	<path class="st1" d="M215.1,580.4c-1.7,8.1-2.6,16.4-5.3,24.2c-5.6,16.3-17.1,26.9-34.1,30.5c-36.4,7.7-62.1-11.7-66.5-43.8
		c-1.4-10.4-1.1-20.6,1.5-30.7c6.8-26.5,30.3-41.3,59-37.3c25.6,3.6,41.7,21.1,44,47.9c0.3,3,0,6,0,9
		C214.2,580.3,214.6,580.3,215.1,580.4z M195.1,580.3c-0.2-0.1-0.5-0.2-0.7-0.2c-0.3-4-0.5-8-1.1-11.9c-0.5-3.3-1.4-6.5-2.6-9.6
		c-5-12.9-15.3-19.8-29.3-19.8s-24.7,6.9-29.3,19.8c-5.1,14.2-5,28.8,0.2,43c4.7,12.6,14.9,19.1,28.6,19.2
		c14.4,0.1,24.7-6.2,29.4-19.3C192.7,594.7,193.5,587.4,195.1,580.3z"/>
	<path class="st1" d="M2605.7,580.1c0.6,10.1-1.2,19.9-5.6,29.1c-6.2,13.1-16.2,21.9-30.3,25.4c-34,8.4-63.9-7.7-68.7-44.2
		c-1.4-10.4-0.8-20.6,1.9-30.7c7.2-26.1,30.2-40.3,58.6-36.4c25.2,3.5,41.3,20.6,44,46.8C2606,573.5,2605.7,576.8,2605.7,580.1z
		 M2587.3,579.3c-1.8-7.5-2.7-15.2-5.4-22.2c-4.8-12.3-15.5-18.7-29.2-18.3c-13.2,0.4-23.2,6.2-28.1,18.6c-5.8,14.8-5.7,30,0,44.8
		c4.8,12.4,15.2,18.6,29,18.6c13.8-0.1,24-6.3,28.6-19C2584.8,594.7,2585.6,587,2587.3,579.3z"/>
	<path class="st1" d="M1199.5,577.4c0.1-1.7,0.2-5.7,0.7-9.7c3.1-24.1,18.6-40.2,42.2-44.1c24.8-4.1,47.1,5.9,56.3,26.3
		c9,19.8,8.8,40.1-0.1,59.9c-5.8,12.8-16,21.3-29.7,24.7C1230.8,644,1198.9,622.9,1199.5,577.4z M1218.6,580.1
		c1.6,7.2,2.4,15.2,5.2,22.5c5,12.9,15.5,18.4,29.2,18.2c13.4-0.2,23.1-6.3,28-18.6c5.7-14.4,5.7-29.3,0.4-43.9
		c-4.6-12.8-15.7-19.7-29.5-19.6c-13.9,0.1-24.7,7.1-29.1,20.1C1220.7,565.3,1220.1,572.4,1218.6,580.1z"/>
	<path class="st1" d="M1407.3,578.4c0.4-4.5,0.5-8.8,1.2-13.1c7-38.5,52.5-56.2,84.1-32.7c7.7,5.7,13.1,13.2,16.2,22.3
		c5.6,16.3,5.7,32.8,0.3,49c-6.6,19.8-23.6,32-44.5,32.6c-5.6,0.2-11.4,0.2-16.9-0.9c-22.1-4.4-36.9-21.2-39.6-44.4
		C1407.6,586.9,1407.6,582.6,1407.3,578.4z M1426.6,580.1c1.5,7,2.3,14.6,4.8,21.7c4.6,12.7,14.8,18.9,28.7,19
		c13.8,0.1,24.2-6.2,29-18.6c5.5-14.5,5.6-29.3,0.4-43.9c-4.6-12.7-15.7-19.7-29.5-19.5c-13.9,0.1-24.7,7.2-29,20.1
		C1428.7,565.4,1428.1,572.4,1426.6,580.1z"/>
	<path class="st1" d="M2831.4,524.9c6.5,0,12.1,0,19,0c0,7.9,0,15.5,0,23c0,7.2,0,14.5,0,22.3c19.5,0,38,0,57.2,0
		c0-15,0-29.5,0-44.9c6.8,0,12.9,0,19.5,0c0,36.3,0,72.4,0,109.3c-6.2,0-12,0-19.1,0c0-15.5,0-31,0-47c-19.5,0-37.6,0-57.2,0
		c0,15.5,0,30.9,0,47c-7.2,0-12.9,0-19.4,0C2831.4,598,2831.4,561.9,2831.4,524.9z"/>
	<path class="st1" d="M4131.3,535.6c-2.3,5.1-4.2,9.2-6.5,14c-3.2-1.7-5.7-3.2-8.3-4.5c-10-5.3-20.5-7.3-31.9-5.3
		c-12.9,2.3-20.9,9.8-24.5,22.1c-3.6,12.1-3.5,24.4,0.1,36.5c3.8,12.7,12.6,20.3,25.7,22c9.6,1.2,19.3,1,29.2-2.6
		c0-8.8,0-17.6,0-27.5c-7.5,0-14.6,0-22.6,0c0-5.1,0-9.2,0-14.8c13.2-0.4,26.6-0.3,40.6-0.1c0,18.3,0,35.5,0,54.1
		c-7.1,1.9-14.3,4.8-21.7,5.5c-10.8,1-22.1,1.8-32.7,0c-22-3.7-35.6-17.7-39.6-39.5c-1.8-9.9-1.8-20.7-0.2-30.7
		c3.8-22.8,19.1-36.9,42-40.9c13.1-2.3,25.9-1,38.1,4.5C4123.2,530.2,4126.9,533,4131.3,535.6z"/>
	<path class="st1" d="M406.9,525c25.5,0,49.4,0,73.8,0c0,5,0,9.5,0,15c-18,0-35.5,0-53.7,0c0,10.5,0,20,0,30.6c16.6,0,33.1,0,50.2,0
		c0,5.6,0,10.1,0,15.8c-16.4,0-32.9,0-50.1,0c0,11.3,0,21.4,0,33.1c17.5,0.2,35.3,0.4,53.6,0.7c0,5.1,0,9.3,0,13.4
		c-7.5,2.3-54.2,3-72.9,1.1c-2.1-17.8-0.6-35.9-0.9-54C406.6,562.3,406.9,544,406.9,525z"/>
	<path class="st1" d="M3318.8,619.4c0,6.1,0,10.3,0,15.2c-24.6,0-48.7,0-73.3,0c0-36.8,0-73,0-109.7c24.4,0,48.3,0,73,0
		c0,4.5,0,9,0,15c-17.5,0.7-35.3-0.2-53.6,0.5c0,10.3,0,19.8,0,30.4c16.9,0,33.4,0,50.4,0c0,5.6,0,10.1,0,15.8
		c-16.8,0-33.3,0-50.4,0c0,11.3,0,21.4,0,32.8C3282.7,619.4,3300.2,619.4,3318.8,619.4z"/>
	<path class="st1" d="M4540.1,524.8c5.6,0,10.5,0,16.6,0c16.4,36.1,32.9,72.5,50,110c-7.5,0-13.3,0-19.7,0
		c-3.7-8.3-7.3-16.5-11.3-25.6c-7.2,0-14.5,0-21.7,0c-8.7,0-17.3,0.2-26-0.1c-4.6-0.1-7.5,1.2-9.1,5.8c-1.5,4.4-4,8.5-5.4,12.9
		c-1.9,6.2-5.9,8.2-12,7.6c-3.2-0.3-6.4-0.1-11.4-0.1C4507.3,597.3,4523.7,561.1,4540.1,524.8z M4529,591.7c7,2.9,27.3,3.4,39.7,0.9
		c-6.4-15-12.8-29.7-20-46.6C4541.5,562.5,4535.3,577.1,4529,591.7z"/>
	<path class="st1" d="M680.3,570.7c0,6,0,10.5,0,15.9c-16.8,0-33,0-50.1,0c-1.2,11.3-0.6,21.7-0.4,33c18.1,0,35.3,0,53.4,0
		c0,5.3,0,9.7,0,14.2c-7.4,2.1-62.2,2.4-72.6,0.3c0-36,0-72.1,0-108.8c24.3,0,48.4,0,73,0c0,4.9,0,9.4,0,15c-17.9,0-35.4,0-53.4,0
		c0,10.6,0,20.1,0,30.5C646.7,570.7,662.8,570.7,680.3,570.7z"/>
	<path class="st1" d="M3824.2,536.5c-2.1,4.5-4,8.7-5.7,12.4c-9-3.3-17.1-7.5-25.6-9.1c-6.6-1.3-13.9-0.2-20.5,1.4
		c-7.1,1.7-10.6,7.6-10.7,14c-0.1,7.4,4.7,10.8,10.6,12.8c6.6,2.2,13.5,3.6,20.2,5.7c6.3,2,12.7,4,18.7,6.7
		c22.3,10,18.4,38,3.7,47.5c-4.9,3.2-10.6,5.9-16.3,7c-20.6,4.2-40.2,1.8-58.7-11.2c2.3-4.7,4.4-9.1,6.7-13.8
		c3.3,1.8,5.9,3.2,8.5,4.5c11,5.8,22.7,7.3,34.9,6c2.9-0.3,5.9-1.3,8.6-2.4c5.3-2.3,8.5-6.5,8.6-12.4c0.1-5.7-3.4-9.3-8.5-11.1
		c-6.3-2.2-12.7-3.8-19.1-5.8c-7-2.2-14.1-4-20.8-6.8c-23.3-9.9-19.7-37.5-6-48.6c6.4-5.2,13.7-8.1,21.7-9.5
		C3792.1,520.7,3810.8,525.2,3824.2,536.5z"/>
	<path class="st1" d="M3652.1,525c16.4,36.2,32.8,72.2,49.7,109.4c-7,0-12.7,0-19.5,0c-3.5-7.8-7.3-16.2-11.2-24.8
		c-18.2,0-36.1,0-54.3,0c-3.8,8.4-7.4,16.6-11.3,25.1c-6,0-11.9,0-17.8,0c0.8-7.8,32.6-80.1,48.1-109.7
		C3640.5,525,3645.8,525,3652.1,525z M3663.3,593.5c-4.3-15.4-15.6-40-20.6-44.7c-6.3,14.7-12.5,29.2-19.2,44.7
		C3637.6,593.5,3650,593.5,3663.3,593.5z"/>
	<path class="st1" d="M4353.5,524.8c5.7,0,10.6,0,16.6,0c16.3,36,32.8,72.2,49.8,109.6c-6.9,0-12.6,0-19.6,0
		c-2.5-5.5-5.6-11.7-8-18.2c-1.9-5-4.5-7.3-10.2-7.2c-15.6,0.4-31.2,0.1-47.1,0.1c-3.1,7-6.3,13.2-8.7,19.7
		c-1.8,4.8-4.6,6.9-9.7,6.5c-3.8-0.3-7.7-0.1-13.2-0.1C4320.7,597.3,4337.1,561,4353.5,524.8z M4363.3,548.7
		c-0.8,0.1-1.7,0.1-2.5,0.2c-6.2,14.5-12.4,29-19,44.4c14,0,26.7,0,40.6,0C4375.7,577.7,4369.5,563.2,4363.3,548.7z"/>
	<path class="st1" d="M4891.4,524.7c5.9,0,10.9,0,16.6,0c16.4,36.2,32.9,72.4,49.9,109.8c-7.1,0-12.9,0-19.5,0
		c-3.6-8-7.5-16.4-11.5-25.3c-16.9,0-33.5,0-50.1,0c-3.8,0-5.1,2.5-6.4,5.3c-2.9,6.7-5.8,13.4-8.8,20.3c-6.4,0-12.3,0-20,0
		C4858.5,597.7,4874.8,561.5,4891.4,524.7z M4920.4,593.2c-6.8-15.8-13.1-30.2-19.3-44.6c-0.7,0.1-1.5,0.1-2.2,0.2
		c-6.1,14.7-13.1,29.1-19.1,45.3c12.6,0,23.5,0,34.5,0C4915.8,594,4917.3,593.6,4920.4,593.2z"/>
	<path class="st1" d="M1715.6,635.2c-6.8,0-11.7,0.5-16.4-0.2c-2-0.3-4.3-2.8-5.4-4.8c-2.7-5.3-5-10.9-7.2-16.4
		c-1.3-3.2-3.4-4.6-6.8-4.6c-16.3,0.1-32.5,0-49.3,0c-3.9,8.5-7.6,16.6-11.6,25.4c-5.9,0-12.1,0-19.8,0
		c16.8-37.1,33.1-73.4,49.6-109.8c5.6,0,10.9,0,16.8,0C1681.9,561,1698.3,597.2,1715.6,635.2z M1676.1,593.4
		c-1.8-10.2-14.7-39.5-20-45.2c-5.9,15.2-13.3,29.4-18.7,45.2C1651.3,593.4,1663.7,593.4,1676.1,593.4z"/>
	<path class="st1" d="M3014.4,609.2c-4,9-7.7,17.1-11.5,25.6c-6.2,0-12,0-19.6,0c16.3-37.3,33-73.3,49.5-109.8c5.3,0,10.6,0,16.8,0
		c16.3,35.9,32.7,72,49.9,109.8c-6,0.2-10.5,0.3-14.9,0.5c-3.5,0.1-5.5-1.5-6.7-4.7c-2.2-5.6-4.9-10.9-7-16.5c-1.4-3.7-3.8-5-7.6-5
		C3047.1,609.2,3031.2,609.2,3014.4,609.2z M3042.4,548.2c-0.8,0.1-1.5,0.2-2.3,0.3c-5.8,14.9-13.1,29.1-18.6,44.9
		c13.8,0,26.2,0,40.2,0C3054.9,577.6,3048.6,562.9,3042.4,548.2z"/>
	<path class="st1" d="M28,588.8c0,16.1,0,30.6,0,45.8c-6.7,0-12.5,0-19.1,0c0-36.4,0-72.5,0-108.6c0.5-0.4,1-1.1,1.5-1.1
		c18-0.1,36-1,53.9,0.1c18.2,1,29.4,13.3,29.9,30.1c0.5,18.7-10.7,31.5-29.8,33.3c-7.9,0.8-16,0.4-24,0.5
		C36.8,588.9,33.2,588.8,28,588.8z M28.6,572.7c11.8,0,22.5,0.7,33-0.2c8.8-0.7,13.8-7.2,13.9-15.5c0.2-8-4.3-14.7-12.2-16.1
		c-11.4-2-23-1.4-34.8-0.5C28.6,551.7,28.6,561.8,28.6,572.7z"/>
	<path class="st1" d="M4682.1,588.8c0,8.6,0,15.8,0,23c0,7.3,0,14.5,0,22.6c-6.8,0-12.8,0-19.3,0c0-36.7,0-72.8,0-109.4
		c2.4-0.2,4.3-0.6,6.2-0.6c14.7,0,29.3-0.2,44,0.1c4.9,0.1,10,0.9,14.7,2.4c13.1,4.2,20.3,14.6,20.6,28.7
		c0.3,14.8-6.5,25.7-19.8,30.2c-5.6,1.9-11.7,2.5-17.6,2.8C4701.8,589.2,4692.9,588.8,4682.1,588.8z M4682.7,572.5
		c11.8,0,23.1,0.8,34.2-0.3c8.1-0.7,12.6-7.6,12.7-15.5c0-7.7-4.1-13.4-11.5-15.7c-6-1.9-28.7-1.4-35.4,0.7
		C4682.7,551.9,4682.7,562.1,4682.7,572.5z"/>
	<path class="st1" d="M3574.3,610.7c1.9,4.2,3.8,8.4,5.5,12.3c-22.3,21.4-63.9,17.5-81.1-7c-13.9-19.7-13.9-53.2,0.3-72.6
		c12.7-17.4,30.9-22,51.3-19.9c10.7,1.1,20.8,4.5,29.6,12.9c-1.9,4.3-3.9,8.7-5.5,12.3c-9.4-3.2-17.8-7.4-26.6-9
		c-18.4-3.3-32.9,6.9-37.2,25c-2.4,10.1-2.4,20.5,0.1,30.7c4.7,19.4,20.9,29.2,41.3,24.3C3559.3,617.8,3566.1,614,3574.3,610.7z"/>
	<path class="st1" d="M5125.5,525.1c0,4.9,0,9.4,0,15c-17,0-33.8,0-51.3,0c0,10.6,0,20,0,30.6c16,0,31.8,0,48.2,0
		c0,5.6,0,10.1,0,15.9c-16,0-31.7,0-48.8,0c0,16.6,0,32.1,0,48.1c-7.1,0-12.9,0-19.3,0c0-36.7,0-72.8,0-109.6
		C5078.1,525.1,5101.5,525.1,5125.5,525.1z"/>
	<path class="st1" d="M1040.5,524.7c7,0,13.6,0,21.5,0c-1.5,2.8-2.4,5.1-3.7,7.1c-11.8,17.7-23.6,35.4-35.7,53
		c-3.2,4.6-4.8,9.2-4.5,14.8c0.3,8.6,0.1,17.3,0.1,26c0,2.9-0.4,5.8-0.6,9.1c-6.5,0-12.3,0-19.3,0c0-11.2-0.4-21.8,0.1-32.3
		c0.4-7.7-1.7-14-6.2-20.3c-11.1-15.8-21.7-31.9-32.4-48c-1.8-2.7-3.3-5.5-5.8-9.6c7.3,0,13.3-0.5,19,0.2c2.4,0.3,5,3,6.5,5.3
		c7.7,11.6,15.1,23.5,22.7,35.3c1.7,2.7,3.7,5.2,6.4,8.9C1019.6,557,1030.1,540.9,1040.5,524.7z"/>
	<path class="st1" d="M1365.9,634.7c-6.9,0-12.7,0-19.9,0c0-9.2-0.5-18.1,0.1-26.9c0.8-11.1-2-20.5-8.8-29.6
		c-10.5-14.1-19.9-29.1-29.7-43.8c-1.8-2.7-3.4-5.5-6.2-9.9c7.3,0,13.1-0.5,18.8,0.2c2.4,0.3,5.1,2.8,6.6,5
		c7.8,11.6,15.2,23.5,22.7,35.2c1.7,2.7,3.7,5.3,6.1,8.8c2.1-2.8,3.8-4.7,5.1-6.8c7.8-12,15.8-23.9,23.2-36.2c3-5,6.5-6.9,12.1-6.4
		c4.2,0.4,8.4,0.1,14.1,0.1c-2.5,4.1-4,6.9-5.8,9.6c-11.1,16.6-22,33.3-33.5,49.7c-3.9,5.5-5.5,11-5.2,17.6
		C1366.2,612.2,1365.9,623.1,1365.9,634.7z"/>
	<path class="st1" d="M4947.1,525c31,0,61.2,0,91.9,0c0,5.1,0,9.6,0,15.4c-11.6,0-23.1,0-35.8,0c0,31.9,0,62.7,0,94.2
		c-7.3,0-13.4,0-20.6,0c0-31.4,0-62.1,0-93.7c-12.4,0-23.6,0-35.5,0C4947.1,535.2,4947.1,530.5,4947.1,525z"/>
	<path class="st1" d="M4465.9,634.7c-7.6,0-13.4,0-20.4,0c0-31.3,0-62.1,0-94c-12.6,0-24,0-36,0c0-5.7,0-10.2,0-14.7
		c7.5-2,80.2-2.4,91.9-0.4c0.1,2.1,0.4,4.3,0.4,6.5c0,2.3-0.2,4.6-0.3,8.1c-11.5,0-23,0-35.6,0
		C4465.9,572.1,4465.9,602.8,4465.9,634.7z"/>
	<path class="st1" d="M2010.4,540.2c0-5.5,0-9.8,0-14c7.1-2.1,79.1-2.7,92-0.7c0,4.7,0,9.5,0,15c-11.8,0-23,0-35.7,0
		c-0.1,10.8-0.2,21-0.3,31.2c0,10.6,0,21.3,0,31.9c0,10.2,0,20.4,0,31.2c-7.1,0-12.9,0-19.8,0c0-31.2,0-61.9,0-93.7
		C2033.9,540.7,2022.2,540.5,2010.4,540.2z"/>
	<path class="st1" d="M1158.5,634.9c-7.4,0-13,0-19.7,0c0-31.2,0-62,0-93.9c-12.5,0-24,0-36,0c0-5.7,0-10.2,0-16.2
		c30.2-0.5,60.6-0.2,91.7-0.2c0,5.6,0,10.3,0,15.9c-11.7,0-22.9,0-35.3,0c-1.2,10.8-0.5,21-0.6,31.1c-0.1,10.6,0,21.3,0,31.9
		C1158.5,613.6,1158.5,623.8,1158.5,634.9z"/>
	<path class="st1" d="M2780,634.8c-7,0-12.9,0-19.8,0c0-31.3,0-62.1,0-93.8c-12.3,0-23.5,0-35.5,0c0-5.6,0-10.4,0-15.9
		c30,0,60.1,0,91,0c0,4.8,0,9.6,0,15.2c-11.4,0-22.7,0-35.1,0c-1,10.9-0.4,21.1-0.5,31.2c-0.1,10.7,0,21.3,0,32
		C2780,613.7,2780,624,2780,634.8z"/>
	<path class="st1" d="M1553.7,540.9c-12.3,0-23.5,0-35.5,0c0-5.7,0-10.4,0-15.8c30.2,0,60.3,0,91.1,0c0,5,0,9.7,0,15.4
		c-11.6,0-22.8,0-35.2,0c-0.9,31.6,0.1,62.4-0.6,94c-6.6,0-12.7,0-19.8,0C1553.7,603.4,1553.7,572.6,1553.7,540.9z"/>
	<path class="st1" d="M4786.4,619.1c17.8,0,34.4,0,51.4,0c0,5.5,0,10,0,16.1c-23.5,0.3-46.9,0.3-70.9,0c0-37.2,0-73.3,0-110.1
		c6.2,0,12,0,19.3,0C4786.4,555.8,4786.1,586.6,4786.4,619.1z"/>
	<path class="st1" d="M4015.6,634.8c-3.5,0.2-6.4,0.5-9.3,0.5s-5.9-0.3-9.4-0.5c0-36.6,0-72.6,0-109.5c6,0,12.1,0,18.7,0
		C4015.6,561.7,4015.6,598,4015.6,634.8z"/>
	<path class="st1" d="M3467.4,634.7c-6.6,0-12.5,0-18.8,0c0-36.7,0-72.7,0-109.5c6.2,0,12.2,0,18.8,0
		C3467.4,561.6,3467.4,597.6,3467.4,634.7z"/>
	<path class="st1" d="M3711.5,566.4c-2.5-1.9-4.5-3.5-6.9-5.3c2.5-4.4,4.8-8.7,7.6-13.7c-3.6-0.8-6.3-1.4-9.6-2.2c0-6.6,0-13,0-20.1
		c6.9,0,13.4,0,20.4,0C3725,540.2,3724.4,554.3,3711.5,566.4z"/>
</g>
</svg>
