<?xml version="1.0" encoding="utf-8"?>
<!-- Generator: Adobe Illustrator 24.1.2, SVG Export Plug-In . SVG Version: 6.00 Build 0)  -->
<svg version="1.1" id="Layer_1" xmlns="http://www.w3.org/2000/svg" xmlns:xlink="http://www.w3.org/1999/xlink" x="0px" y="0px"
	 viewBox="0 0 1000 1000" style="enable-background:new 0 0 1000 1000;" xml:space="preserve">
<style type="text/css">
	.st0{fill:#1DD8FE;}
</style>
<g>
	<path class="st0" d="M400.4,464.5c0,41.3,0.1,82.6,0,124c-0.1,24.2-13.8,44.2-35.5,52.2c-35.3,13-72.8-12.7-73-50.5
		c-0.3-67.1-0.1-134.2-0.1-201.2c0-16.8-0.2-33.7,0.1-50.5c0.5-27.1,21.3-49.6,48.3-52.7c26.1-3,51.3,14.1,58,39.7
		c1.5,5.6,2,11.6,2,17.4C400.5,383.3,400.4,423.9,400.4,464.5z"/>
	<path class="st0" d="M599.6,535.5c0-41.8-0.1-83.7,0-125.5c0.1-24.6,15.6-44.9,39-51.7c32.4-9.5,65.7,13.1,68.8,46.6
		c0.3,3,0.4,6.1,0.4,9.2c0,80.8,0.1,161.7-0.1,242.5c0,6.3-0.5,12.8-2.2,18.9c-7.2,26.2-32.5,42.2-60.1,38.6
		c-25.5-3.4-45.7-26-45.8-52.4C599.4,619.7,599.6,577.6,599.6,535.5z"/>
	<path class="st0" d="M543.5,503c0,9.7,0.1,19.4,0,29.1c-0.4,23.2-17.9,41.8-40.3,43c-24,1.3-43.3-14.7-46.3-38.4
		c-0.3-2-0.5-4.1-0.5-6.1c0-18.4-0.2-36.7,0-55.1c0.3-22.3,13.6-39,34.5-43.8c25.7-5.9,51.4,13.5,52.4,39.9
		C543.8,482.1,543.4,492.6,543.5,503C543.4,503,543.5,503,543.5,503z"/>
	<path class="st0" d="M138.2,546.6c0-24.4,19.3-43.8,43.7-43.7c23.8,0.1,43.3,19.6,43.4,43.4c0.1,24.1-19.8,43.9-43.9,43.7
		C157.5,589.9,138.3,570.5,138.2,546.6z"/>
	<path class="st0" d="M818.3,535.5c-24,0.1-43.5-19-43.8-42.8c-0.2-24.3,19.1-44,43.4-44.1c23.9-0.1,43.5,19.1,43.8,42.9
		C862.1,515.7,842.6,535.4,818.3,535.5z"/>
</g>
</svg>
